<svg xmlns="http://www.w3.org/2000/svg" width="100%" height="100%"  viewBox="0 0 141 19"><path d="M137.164 9.204c1.11.26 1.989.797 2.639 1.612.65.815.975 1.76.975 2.834 0 1.577-.524 2.808-1.573 3.692-1.049.884-2.552 1.326-4.511 1.326h-8.554V.286h8.346c1.872 0 3.32.407 4.342 1.222 1.023.815 1.534 1.976 1.534 3.484 0 1.11-.295 2.032-.884 2.77-.59.736-1.36 1.217-2.314 1.442zM130.586 7.8h2.912c1.543 0 2.314-.659 2.314-1.976s-.789-1.976-2.366-1.976h-2.86V7.8zm3.172 7.254c1.647 0 2.47-.676 2.47-2.028 0-.659-.217-1.174-.65-1.547-.433-.373-1.049-.559-1.846-.559h-3.146v4.134h3.172zM118.774 3.822V7.67h6.214v3.354h-6.214v4.082h6.994v3.562h-11.44V.286h11.44v3.536h-6.994zM115.138.286l-4.394 18.382h-5.512L102.294 6.37 99.33 18.668h-5.512L89.424.286h4.836l2.366 13.312L99.85.286h4.862l3.224 13.312L110.328.286h4.81z" fill="#FC4850"/><path d="M87.414.286v3.536h-7.54v4.03h5.824v3.38h-5.824v7.436h-4.446V.286h11.986zM68.4 0c1.733 0 3.306.403 4.72 1.209a8.808 8.808 0 013.34 3.354c.815 1.43 1.222 3.046 1.222 4.849 0 1.803-.412 3.423-1.235 4.862a8.875 8.875 0 01-3.354 3.367c-1.413.806-2.977 1.209-4.693 1.209-1.716 0-3.28-.403-4.693-1.209a8.875 8.875 0 01-3.354-3.367c-.823-1.439-1.235-3.06-1.235-4.862 0-1.803.412-3.419 1.235-4.849a8.902 8.902 0 013.354-3.354C65.12.403 66.684 0 68.4 0zm0 4.134c-1.456 0-2.613.472-3.47 1.417-.859.945-1.288 2.232-1.288 3.861 0 1.612.43 2.895 1.287 3.848.858.953 2.015 1.43 3.471 1.43 1.439 0 2.591-.477 3.458-1.43s1.3-2.236 1.3-3.848c0-1.612-.429-2.895-1.287-3.848-.858-.953-2.015-1.43-3.47-1.43z" fill="#686868"/><path d="M55.242.286v3.536H50.25v14.846h-4.472V3.822h-4.94V.286h14.404zM41.616 18.668H37.17L29.734 7.384v11.284h-4.446V.286h4.446l7.436 11.388V.286h4.446v18.382zM18.26 0c1.733 0 3.306.403 4.719 1.209a8.808 8.808 0 013.341 3.354c.815 1.43 1.222 3.046 1.222 4.849 0 1.803-.412 3.423-1.235 4.862a8.875 8.875 0 01-3.354 3.367c-1.413.806-2.977 1.209-4.693 1.209-1.716 0-3.28-.403-4.693-1.209a8.875 8.875 0 01-3.354-3.367c-.823-1.439-1.235-3.06-1.235-4.862 0-1.803.412-3.419 1.235-4.849a8.901 8.901 0 013.354-3.354C14.98.403 16.544 0 18.26 0zm0 4.134c-1.456 0-2.613.472-3.471 1.417-.858.945-1.287 2.232-1.287 3.861 0 1.612.429 2.895 1.287 3.848.858.953 2.015 1.43 3.471 1.43 1.439 0 2.591-.477 3.458-1.43s1.3-2.236 1.3-3.848c0-1.612-.429-2.895-1.287-3.848-.858-.953-2.015-1.43-3.471-1.43zM11.986.286v3.536h-7.54v4.03h5.824v3.38H4.446v7.436H0V.286h11.986z"/></svg>