<?xml version="1.0" encoding="utf-8"?>
<svg width="674px" height="79px" viewBox="0 0 674 79" version="1.1" xmlns:xlink="http://www.w3.org/1999/xlink" xmlns="http://www.w3.org/2000/svg">
  <desc>Created with Lunacy</desc>
  <path d="M633.816 61.248L660.12 61.248L660.12 60.672C654.936 60.672 653.208 58.368 653.208 53.088L653.208 34.176C654.36 31.104 656.568 28.512 659.16 27.36C658.872 31.872 662.232 35.136 666.168 35.136C670.008 35.136 673.176 31.968 673.176 27.936C673.176 24.384 670.68 20.64 665.688 20.64C659.352 20.64 654.84 27.072 652.824 33.792L652.824 20.736L633.816 22.656L633.816 23.232C639 23.232 640.056 26.016 640.056 30.816L640.056 53.088C640.056 57.888 639 60.672 633.816 60.672L633.816 61.248ZM607.894 62.304C618.742 62.304 624.214 56.64 627.382 52.224L626.806 51.84C624.214 55.584 619.702 60.096 613.078 60.096C604.246 60.096 599.446 52.128 599.446 39.456L627.478 39.456C627.19 27.648 619.126 20.64 607.798 20.64C594.838 20.64 585.91 29.664 585.91 41.472C585.91 52.32 593.494 62.304 607.894 62.304L607.894 62.304ZM607.51 21.2159C614.134 21.2159 614.422 34.1759 614.518 38.6879L599.542 38.6879C599.734 31.0079 601.942 21.2159 607.51 21.2159L607.51 21.2159ZM527.54 61.248L552.404 61.248L552.404 60.672C548.084 60.672 546.932 58.08 546.932 53.28L546.932 29.28C549.044 27.168 551.828 25.056 555.284 25.056C558.836 25.056 561.044 27.264 561.044 32.256L561.044 53.28C561.044 58.08 559.796 60.672 555.476 60.672L555.476 61.248L580.34 61.248L580.34 60.672C575.156 60.672 574.1 58.08 574.1 53.28L574.1 33.6C574.1 24.384 568.628 20.64 562.388 20.64C555.668 20.64 550.196 24.864 546.548 28.704L546.548 20.64L527.54 22.56L527.54 23.136C532.724 23.136 533.78 25.728 533.78 30.528L533.78 53.28C533.78 58.08 532.724 60.672 527.54 60.672L527.54 61.248ZM470.61 61.248L495.474 61.248L495.474 60.672C491.154 60.672 490.002 58.08 490.002 53.28L490.002 29.28C492.114 27.168 494.898 25.056 498.354 25.056C501.906 25.056 504.114 27.264 504.114 32.256L504.114 53.28C504.114 58.08 502.866 60.672 498.546 60.672L498.546 61.248L523.41 61.248L523.41 60.672C518.226 60.672 517.17 58.08 517.17 53.28L517.17 33.6C517.17 24.384 511.698 20.64 505.458 20.64C498.738 20.64 493.266 24.864 489.618 28.704L489.618 20.64L470.61 22.56L470.61 23.136C475.794 23.136 476.85 25.728 476.85 30.528L476.85 53.28C476.85 58.08 475.794 60.672 470.61 60.672L470.61 61.248ZM433.84 62.304C441.04 62.304 445.168 59.04 447.76 55.488C449.008 59.424 452.368 62.208 457.744 62.208C463.984 62.208 467.248 58.464 469.648 54.624L469.168 54.336C467.824 56.448 465.52 59.424 462.832 59.424C461.392 59.424 460.24 58.656 460.24 56.448L460.24 35.616C460.24 24.576 449.488 20.64 439.984 20.64C429.232 20.64 421.936 25.536 421.936 31.584C421.936 34.848 424.144 38.304 428.272 38.304C431.92 38.304 434.8 35.424 434.8 31.872C434.8 29.28 433.264 26.688 430.768 25.632C432.4 23.328 434.992 21.216 439.312 21.216C445.744 21.216 447.088 25.824 447.088 31.584L447.088 41.472C444.112 40.608 440.176 40.032 436.528 40.032C427.504 40.032 420.112 43.2 420.112 51.168C420.112 58.08 425.68 62.304 433.84 62.304L433.84 62.304ZM439.792 59.616C435.472 59.616 433.552 55.68 433.552 50.592C433.552 44.448 436.24 41.28 441.424 41.28C443.344 41.28 445.36 41.76 447.088 42.24L447.088 55.2C444.976 57.984 442.576 59.616 439.792 59.616L439.792 59.616ZM352.43 61.248L386.318 61.248C404.27 61.248 411.374 54.528 411.374 45.504C411.374 36.48 404.366 30.912 386.222 30.624L386.222 30.336C402.734 30.048 409.454 24.672 409.454 16.224C409.454 7.20004 401.774 1.92004 384.206 1.92004L352.43 1.92004L352.43 2.49604C359.15 2.49604 360.59 4.60804 360.59 11.904L360.59 51.264C360.59 58.56 359.15 60.6721 352.43 60.6721L352.43 61.248ZM374.894 60.576L374.894 30.912L382.286 30.912C392.558 30.912 396.302 37.728 396.302 45.216C396.302 52.896 392.462 60.576 382.958 60.576L374.894 60.576ZM374.894 30.24L374.894 2.59204L382.382 2.59204C391.694 2.59204 394.286 9.88804 394.286 16.32C394.286 24.48 390.254 30.24 380.366 30.24L374.894 30.24ZM312.876 14.88C317.196 14.88 320.652 11.808 320.652 7.392C320.652 3.072 317.196 0 312.876 0C308.556 0 305.004 3.072 305.004 7.392C305.004 11.808 308.556 14.88 312.876 14.88L312.876 14.88ZM300.396 61.248L325.932 61.248L325.932 60.672C320.748 60.672 319.692 58.08 319.692 53.28L319.692 20.64L300.396 22.56L300.396 23.136C305.58 23.136 306.636 25.728 306.636 30.528L306.636 53.28C306.636 58.08 305.58 60.672 300.396 60.672L300.396 61.248ZM283.018 62.304C290.602 62.304 295.21 57.6 298.474 53.664L297.994 53.28C295.882 55.872 293.002 58.752 289.162 58.752C285.802 58.752 284.17 56.544 284.17 51.744L284.17 22.944L295.978 22.944L295.978 21.696L284.17 21.696L284.17 8.92798L271.018 11.424L271.018 21.696L264.778 21.696L264.778 22.944L271.018 22.944L271.018 49.728C271.018 58.176 275.914 62.304 283.018 62.304L283.018 62.304ZM240.488 62.304C251.528 62.304 258.536 57.696 258.536 49.344C258.536 33.792 234.728 37.728 234.728 27.552C234.728 24.672 236.744 21.216 242.024 21.216C249.416 21.216 253.16 28.128 255.944 34.368L256.424 34.272L255.848 20.832C250.952 21.984 247.112 20.64 241.448 20.64C230.888 20.64 224.936 25.152 224.936 33.024C224.936 48.576 248.456 44.352 248.456 55.104C248.456 57.792 246.728 61.728 240.104 61.728C231.368 61.728 228.296 54.72 225.128 47.904L224.648 48L225.128 60.48C228.968 61.248 235.304 62.304 240.488 62.304L240.488 62.304ZM196.326 62.304C207.174 62.304 212.646 56.64 215.814 52.224L215.238 51.84C212.646 55.584 208.134 60.096 201.51 60.096C192.678 60.096 187.878 52.128 187.878 39.456L215.91 39.456C215.622 27.648 207.558 20.64 196.23 20.64C183.27 20.64 174.342 29.664 174.342 41.472C174.342 52.32 181.926 62.304 196.326 62.304L196.326 62.304ZM195.942 21.2159C202.566 21.2159 202.854 34.1759 202.95 38.6879L187.974 38.6879C188.166 31.0079 190.374 21.2159 195.942 21.2159L195.942 21.2159ZM142.276 78.144C151.492 75.36 163.396 69.888 163.396 59.328L163.396 20.64L143.332 22.56L143.332 23.232C148.516 23.232 150.34 25.632 150.34 30.624L150.34 61.728C150.34 68.064 150.148 73.344 141.988 77.76L142.276 78.144ZM156.58 14.88C160.9 14.88 164.356 11.808 164.356 7.392C164.356 3.072 160.9 0 156.58 0C152.26 0 148.804 3.072 148.804 7.392C148.804 11.808 152.26 14.88 156.58 14.88L156.58 14.88ZM107.426 62.304C114.626 62.304 118.754 59.04 121.346 55.488C122.594 59.424 125.954 62.208 131.33 62.208C137.57 62.208 140.834 58.464 143.234 54.624L142.754 54.336C141.41 56.448 139.106 59.424 136.418 59.424C134.978 59.424 133.826 58.656 133.826 56.448L133.826 35.616C133.826 24.576 123.074 20.64 113.57 20.64C102.818 20.64 95.5222 25.536 95.5222 31.584C95.5222 34.848 97.7302 38.304 101.858 38.304C105.506 38.304 108.386 35.424 108.386 31.872C108.386 29.28 106.85 26.688 104.354 25.632C105.986 23.328 108.578 21.216 112.898 21.216C119.33 21.216 120.674 25.824 120.674 31.584L120.674 41.472C117.698 40.608 113.762 40.032 110.114 40.032C101.09 40.032 93.6982 43.2 93.6982 51.168C93.6982 58.08 99.2662 62.304 107.426 62.304L107.426 62.304ZM113.378 59.616C109.058 59.616 107.138 55.68 107.138 50.592C107.138 44.448 109.826 41.28 115.01 41.28C116.93 41.28 118.946 41.76 120.674 42.24L120.674 55.2C118.562 57.984 116.162 59.616 113.378 59.616L113.378 59.616ZM0 61.248L25.344 61.248L25.344 60.6721C15.36 60.6721 13.728 55.872 15.264 33.6L16.992 11.904L40.608 60L40.992 60L62.112 10.272L64.32 49.536C64.704 56.832 63.168 60.6721 56.256 60.6721L56.256 61.248L87.648 61.248L87.648 60.6721C80.544 60.6721 79.008 56.928 78.528 48.864L76.8 14.4C76.512 7.00805 77.664 2.49604 84.96 2.49604L84.96 1.92004L64.704 1.92004L47.712 42.048L28.416 1.92004L4.128 1.92004L4.128 2.49604C14.112 2.49604 16.32 8.16004 15.552 18.72L14.4 33.6C12.96 55.776 10.176 60.6721 0 60.6721L0 61.248Z" id="Majesti-Banner" fill="#FC4850"  stroke="none" />
</svg>