<?xml version="1.0" encoding="utf-8"?>
<svg width="228px" height="47px"  viewBox="0 0 228 47" version="1.1" xmlns:xlink="http://www.w3.org/1999/xlink" xmlns="http://www.w3.org/2000/svg">
  <desc>Created with Lunacy</desc>
  <path d="M227.222 27.0234C227.222 29.7109 226.288 31.7578 224.421 33.1641C222.554 34.5703 219.761 35.2734 216.042 35.2734C214.136 35.2734 212.511 35.1445 211.167 34.8867C209.823 34.6289 208.565 34.25 207.394 33.75L207.394 27.8438C208.722 28.4688 210.218 28.9922 211.882 29.4141C213.546 29.8359 215.011 30.0469 216.276 30.0469C218.87 30.0469 220.167 29.2969 220.167 27.7969C220.167 27.2344 219.995 26.7773 219.651 26.4258C219.308 26.0742 218.714 25.6758 217.87 25.2305C217.026 24.7852 215.901 24.2656 214.495 23.6719C212.479 22.8281 210.999 22.0469 210.054 21.3281C209.108 20.6094 208.421 19.7852 207.991 18.8555C207.562 17.9258 207.347 16.7813 207.347 15.4219C207.347 13.0938 208.249 11.293 210.054 10.0195C211.858 8.7461 214.417 8.10938 217.729 8.10938C220.886 8.10938 223.956 8.79688 226.94 10.1719L224.784 15.3281C223.472 14.7656 222.245 14.3047 221.104 13.9453C219.964 13.5859 218.8 13.4063 217.612 13.4063C215.503 13.4063 214.448 13.9766 214.448 15.1172C214.448 15.7578 214.788 16.3125 215.468 16.7813C216.147 17.25 217.636 17.9453 219.933 18.8672C221.979 19.6953 223.479 20.4688 224.433 21.1875C225.386 21.9063 226.089 22.7344 226.542 23.6719C226.995 24.6094 227.222 25.7266 227.222 27.0234L227.222 27.0234ZM204.432 34.8047L197.283 34.8047L197.283 19.5C197.283 17.6094 196.947 16.1914 196.275 15.2461C195.604 14.3008 194.533 13.8281 193.064 13.8281C191.064 13.8281 189.619 14.4961 188.729 15.832C187.838 17.168 187.393 19.3828 187.393 22.4766L187.393 34.8047L180.244 34.8047L180.244 8.60156L185.705 8.60156L186.666 11.9531L187.064 11.9531C187.861 10.6875 188.959 9.73047 190.357 9.08203C191.756 8.43359 193.346 8.10938 195.127 8.10938C198.174 8.10938 200.486 8.93359 202.064 10.582C203.643 12.2305 204.432 14.6094 204.432 17.7188L204.432 34.8047ZM170.742 34.8047L169.359 31.2422L169.172 31.2422C167.969 32.7578 166.73 33.8086 165.457 34.3945C164.184 34.9805 162.523 35.2734 160.477 35.2734C157.961 35.2734 155.98 34.5547 154.535 33.1172C153.09 31.6797 152.367 29.6328 152.367 26.9766C152.367 24.1953 153.34 22.1445 155.285 20.8242C157.23 19.5039 160.164 18.7734 164.086 18.6328L168.633 18.4922L168.633 17.3438C168.633 14.6875 167.273 13.3594 164.555 13.3594C162.461 13.3594 160 13.9922 157.172 15.2578L154.805 10.4297C157.82 8.85156 161.164 8.0625 164.836 8.0625C168.352 8.0625 171.047 8.82813 172.922 10.3594C174.797 11.8906 175.734 14.2188 175.734 17.3438L175.734 34.8047L170.742 34.8047ZM168.633 22.6641L165.867 22.7578C163.789 22.8203 162.242 23.1953 161.227 23.8828C160.211 24.5703 159.703 25.6172 159.703 27.0234C159.703 29.0391 160.859 30.0469 163.172 30.0469C164.828 30.0469 166.152 29.5703 167.145 28.6172C168.137 27.6641 168.633 26.3984 168.633 24.8203L168.633 22.6641ZM151.303 25.2891C151.303 28.3828 150.189 30.8203 147.963 32.6016C145.736 34.3828 142.639 35.2734 138.67 35.2734C135.014 35.2734 131.779 34.5859 128.967 33.2109L128.967 26.4609C131.279 27.4922 133.236 28.2188 134.838 28.6406C136.439 29.0625 137.904 29.2734 139.232 29.2734C140.826 29.2734 142.049 28.9688 142.9 28.3594C143.752 27.75 144.178 26.8438 144.178 25.6406C144.178 24.9688 143.99 24.3711 143.615 23.8477C143.24 23.3242 142.689 22.8203 141.963 22.3359C141.236 21.8516 139.756 21.0781 137.521 20.0156C135.428 19.0313 133.857 18.0859 132.811 17.1797C131.764 16.2734 130.928 15.2188 130.303 14.0156C129.678 12.8125 129.365 11.4063 129.365 9.79688C129.365 6.76563 130.393 4.38281 132.447 2.64844C134.502 0.914063 137.342 0.046875 140.967 0.046875C142.748 0.046875 144.447 0.257813 146.064 0.679688C147.682 1.10156 149.373 1.69531 151.139 2.46094L148.795 8.10938C146.967 7.35938 145.455 6.83594 144.26 6.53906C143.064 6.24219 141.889 6.09375 140.732 6.09375C139.357 6.09375 138.303 6.41406 137.568 7.05469C136.834 7.69531 136.467 8.53125 136.467 9.5625C136.467 10.2031 136.615 10.7617 136.912 11.2383C137.209 11.7148 137.682 12.1758 138.33 12.6211C138.979 13.0664 140.514 13.8672 142.936 15.0234C146.139 16.5547 148.334 18.0898 149.521 19.6289C150.709 21.168 151.303 23.0547 151.303 25.2891L151.303 25.2891ZM113.536 34.8047L106.388 34.8047L106.388 19.5C106.388 17.6094 106.052 16.1914 105.38 15.2461C104.708 14.3008 103.638 13.8281 102.169 13.8281C100.169 13.8281 98.7236 14.4961 97.833 15.832C96.9424 17.168 96.4971 19.3828 96.4971 22.4766L96.4971 34.8047L89.3486 34.8047L89.3486 8.60156L94.8096 8.60156L95.7705 11.9531L96.1689 11.9531C96.9658 10.6875 98.0635 9.73047 99.4619 9.08203C100.86 8.43359 102.45 8.10938 104.231 8.10938C107.278 8.10938 109.591 8.93359 111.169 10.582C112.747 12.2305 113.536 14.6094 113.536 17.7188L113.536 34.8047ZM74.6904 13.1953C73.1748 13.1953 71.9873 13.6758 71.1279 14.6367C70.2686 15.5977 69.7764 16.9609 69.6514 18.7266L79.6826 18.7266C79.6514 16.9609 79.1904 15.5977 78.2998 14.6367C77.4092 13.6758 76.2061 13.1953 74.6904 13.1953L74.6904 13.1953ZM75.6982 35.2734C71.4795 35.2734 68.1826 34.1094 65.8076 31.7813C63.4326 29.4531 62.2451 26.1563 62.2451 21.8906C62.2451 17.5 63.3428 14.1055 65.5381 11.707C67.7334 9.3086 70.7686 8.10938 74.6436 8.10938C78.3467 8.10938 81.2295 9.16406 83.292 11.2734C85.3545 13.3828 86.3857 16.2969 86.3857 20.0156L86.3857 23.4844L69.4873 23.4844C69.5654 25.5156 70.167 27.1016 71.292 28.2422C72.417 29.3828 73.9951 29.9531 76.0264 29.9531C77.6045 29.9531 79.0967 29.7891 80.5029 29.4609C81.9092 29.1328 83.3779 28.6094 84.9092 27.8906L84.9092 33.4219C83.6592 34.0469 82.3232 34.5117 80.9014 34.8164C79.4795 35.1211 77.7451 35.2734 75.6982 35.2734L75.6982 35.2734ZM50.7051 35.2734C47.627 35.2734 45.2129 34.1563 43.4629 31.9219L43.0879 31.9219C43.3379 34.1094 43.4629 35.375 43.4629 35.7188L43.4629 46.3359L36.3145 46.3359L36.3145 8.60156L42.127 8.60156L43.1348 12L43.4629 12C45.1348 9.40625 47.6113 8.10938 50.8926 8.10938C53.9863 8.10938 56.4082 9.30469 58.1582 11.6953C59.9082 14.0859 60.7832 17.4063 60.7832 21.6563C60.7832 24.4531 60.373 26.8828 59.5527 28.9453C58.7324 31.0078 57.5645 32.5781 56.0488 33.6563C54.5332 34.7344 52.752 35.2734 50.7051 35.2734L50.7051 35.2734ZM48.5957 13.8281C46.8301 13.8281 45.541 14.3711 44.7285 15.457C43.916 16.543 43.4941 18.3359 43.4629 20.8359L43.4629 21.6094C43.4629 24.4219 43.8809 26.4375 44.7168 27.6563C45.5527 28.875 46.877 29.4844 48.6895 29.4844C51.8926 29.4844 53.4941 26.8438 53.4941 21.5625C53.4941 18.9844 53.0996 17.0508 52.3105 15.7617C51.5215 14.4727 50.2832 13.8281 48.5957 13.8281L48.5957 13.8281ZM32.625 17.625C32.625 23.2969 31.2188 27.6563 28.4063 30.7031C25.5937 33.75 21.5625 35.2734 16.3125 35.2734C11.0625 35.2734 7.03125 33.75 4.21875 30.7031C1.40625 27.6563 0 23.2813 0 17.5781C0 11.875 1.41016 7.51953 4.23047 4.51172C7.05078 1.50391 11.0938 2.86102e-06 16.3594 0C21.625 0 25.6523 1.51563 28.4414 4.54688C31.2305 7.57813 32.625 11.9375 32.625 17.625L32.625 17.625ZM7.61719 17.625C7.61719 21.4531 8.34375 24.3359 9.79688 26.2734C11.25 28.2109 13.4219 29.1797 16.3125 29.1797C22.1094 29.1797 25.0078 25.3281 25.0078 17.625C25.0078 9.90625 22.125 6.04688 16.3594 6.04688C13.4688 6.04688 11.2891 7.01953 9.82031 8.96484C8.35156 10.9102 7.61719 13.7969 7.61719 17.625L7.61719 17.625Z" id="Open-Sans" fill="#FC4850"  stroke="none" />
</svg>