<?xml version="1.0" encoding="utf-8"?>
<svg width="911px" height="219px" viewBox="0 0 911 219" version="1.1" xmlns:xlink="http://www.w3.org/1999/xlink" xmlns="http://www.w3.org/2000/svg">
  <desc>Created with Lunacy</desc>
  <path d="M766.188 138.516C766.188 123.422 769.094 109.969 774.906 98.1563C780.719 86.3438 789.086 77.2031 800.008 70.7344C810.93 64.2656 823.609 61.0313 838.047 61.0313C858.578 61.0313 875.336 67.3125 888.32 79.875C901.305 92.4375 908.547 109.5 910.047 131.063L910.328 141.469C910.328 164.813 903.813 183.539 890.781 197.648C877.75 211.758 860.266 218.813 838.328 218.813C816.391 218.813 798.883 211.781 785.805 197.719C772.727 183.656 766.188 164.531 766.188 140.344L766.188 138.516ZM806.828 141.401C806.828 155.86 809.547 166.916 814.984 174.568C820.422 182.221 828.203 186.047 838.328 186.047C848.172 186.047 855.859 182.268 861.391 174.709C866.922 167.15 869.688 155.062 869.688 138.443C869.688 124.265 866.922 113.279 861.391 105.486C855.859 97.6934 848.078 93.7969 838.047 93.7969C828.109 93.7969 820.422 97.6699 814.984 105.416C809.547 113.162 806.828 125.157 806.828 141.401L806.828 141.401ZM722.609 26.4375L722.609 63.8438L748.625 63.8438L748.625 93.6563L722.609 93.6563L722.609 169.594C722.609 175.219 723.688 179.25 725.844 181.688C728 184.125 732.125 185.344 738.219 185.344C742.719 185.344 746.703 185.016 750.172 184.359L750.172 215.156C742.203 217.594 734 218.813 725.563 218.813C697.063 218.813 682.531 204.422 681.969 175.641L681.969 93.6563L659.75 93.6563L659.75 63.8438L681.969 63.8438L681.969 26.4375L722.609 26.4375ZM503.531 138.516C503.531 123.422 506.438 109.969 512.25 98.1563C518.063 86.3438 526.43 77.2031 537.352 70.7344C548.273 64.2656 560.953 61.0313 575.391 61.0313C595.922 61.0313 612.68 67.3125 625.664 79.875C638.648 92.4375 645.891 109.5 647.391 131.063L647.672 141.469C647.672 164.813 641.156 183.539 628.125 197.648C615.094 211.758 597.609 218.813 575.672 218.813C553.734 218.813 536.227 211.781 523.148 197.719C510.07 183.656 503.531 164.531 503.531 140.344L503.531 138.516ZM544.172 141.401C544.172 155.86 546.891 166.916 552.328 174.568C557.766 182.221 565.547 186.047 575.672 186.047C585.516 186.047 593.203 182.268 598.734 174.709C604.266 167.15 607.031 155.062 607.031 138.443C607.031 124.265 604.266 113.279 598.734 105.486C593.203 97.6934 585.422 93.7969 575.391 93.7969C565.453 93.7969 557.766 97.6699 552.328 105.416C546.891 113.162 544.172 125.157 544.172 141.401L544.172 141.401ZM483.578 141.328C483.578 165.703 478.375 184.711 467.969 198.352C457.563 211.992 443.031 218.813 424.375 218.813C407.875 218.813 394.703 212.484 384.859 199.828L383.031 216L346.469 216L346.469 0L387.109 0L387.109 77.4844C396.484 66.5156 408.813 61.0312 424.094 61.0312C442.656 61.0312 457.211 67.8516 467.758 81.4922C478.305 95.1328 483.578 114.328 483.578 139.078L483.578 141.328ZM442.938 138.375C442.938 123 440.5 111.773 435.625 104.695C430.75 97.6172 423.484 94.0781 413.828 94.0781C400.891 94.0781 391.984 99.375 387.109 109.969L387.109 170.016C392.078 180.703 401.078 186.047 414.109 186.047C427.234 186.047 435.859 179.578 439.984 166.641C441.953 160.453 442.938 151.031 442.938 138.375L442.938 138.375ZM176.047 138.516C176.047 123.422 178.953 109.969 184.766 98.1563C190.578 86.3438 198.945 77.2031 209.867 70.7344C220.789 64.2656 233.469 61.0313 247.906 61.0313C268.438 61.0313 285.195 67.3125 298.18 79.875C311.164 92.4375 318.406 109.5 319.906 131.063L320.188 141.469C320.188 164.813 313.672 183.539 300.641 197.648C287.609 211.758 270.125 218.813 248.188 218.813C226.25 218.813 208.742 211.781 195.664 197.719C182.586 183.656 176.047 164.531 176.047 140.344L176.047 138.516ZM216.688 141.401C216.688 155.86 219.406 166.916 224.844 174.568C230.281 182.221 238.063 186.047 248.188 186.047C258.031 186.047 265.719 182.268 271.25 174.709C276.781 167.15 279.547 155.062 279.547 138.443C279.547 124.265 276.781 113.279 271.25 105.486C265.719 97.6934 257.938 93.7969 247.906 93.7969C237.969 93.7969 230.281 97.6699 224.844 105.416C219.406 113.162 216.688 125.157 216.688 141.401L216.688 141.401ZM75.7969 141.047L42.1875 141.047L42.1875 216L0 216L0 11.25L76.0781 11.25C100.266 11.25 118.922 16.6406 132.047 27.4219C145.172 38.2031 151.734 53.4375 151.734 73.125C151.734 87.0938 148.711 98.7422 142.664 108.07C136.617 117.398 127.453 124.828 115.172 130.359L159.469 214.031L159.469 216L114.188 216L98.4272 185.23L75.7969 141.047ZM42.1875 106.875L76.2188 106.875C86.8125 106.875 95.0156 104.18 100.828 98.7891C106.641 93.3985 109.547 85.9688 109.547 76.5C109.547 66.8438 106.805 59.25 101.32 53.7188C95.8359 48.1875 87.4219 45.4219 76.0781 45.4219L42.1875 45.4219L42.1875 106.875Z" id="Roboto" fill="#FC4850"  stroke="none" />
</svg>