<?xml version="1.0" encoding="utf-8"?>
<svg width="593px" height="137px" viewBox="0 0 593 137" version="1.1" xmlns:xlink="http://www.w3.org/1999/xlink" xmlns="http://www.w3.org/2000/svg">
  <desc>Created with Lunacy</desc>
  <path d="M592.852 102.516L570.141 102.516L570.141 1.6875L592.852 1.6875L592.852 102.516ZM546.953 58.8516C546.953 89.1328 532.844 104.273 504.625 104.273C477.25 104.273 463.563 89.4844 463.563 59.9063L463.563 1.6875L486.344 1.6875L486.344 60.1875C486.344 76.5 492.719 84.6563 505.469 84.6563C517.984 84.6563 524.242 76.7813 524.242 61.0313L524.242 1.6875L546.953 1.6875L546.953 58.8516ZM408.383 72.8438L361.414 72.8438C362.164 83.2969 368.75 88.5234 381.172 88.5234C389.094 88.5234 396.055 86.6484 402.055 82.8984L402.055 98.9297C395.398 102.492 386.75 104.273 376.109 104.273C364.484 104.273 355.461 101.051 349.039 94.6055C342.617 88.1602 339.406 79.1719 339.406 67.6406C339.406 55.6875 342.875 46.2188 349.813 39.2344C356.75 32.25 365.281 28.7578 375.406 28.7578C385.906 28.7578 394.027 31.875 399.77 38.1094C405.512 44.3438 408.383 52.8047 408.383 63.4922L408.383 72.8438ZM387.781 59.2031C387.781 48.8906 383.609 43.7344 375.266 43.7344C371.703 43.7344 368.621 45.2109 366.02 48.1641C363.418 51.1172 361.836 54.7969 361.273 59.2031L387.781 59.2031ZM288.727 104.273C276.727 104.273 267.293 100.91 260.426 94.1836C253.559 87.457 250.125 78.3281 250.125 66.7969C250.125 54.8906 253.688 45.5742 260.813 38.8477C267.938 32.1211 277.57 28.7578 289.711 28.7578C301.664 28.7578 311.039 32.1211 317.836 38.8477C324.633 45.5742 328.031 54.4688 328.031 65.5313C328.031 77.4844 324.527 86.9297 317.52 93.8672C310.512 100.805 300.914 104.273 288.727 104.273L288.727 104.273ZM289.289 45.7734C284.039 45.7734 279.961 47.5781 277.055 51.1875C274.148 54.7969 272.695 59.9063 272.695 66.5156C272.695 80.3438 278.273 87.2578 289.43 87.2578C300.07 87.2578 305.391 80.1563 305.391 65.9531C305.391 52.5 300.023 45.7734 289.289 45.7734L289.289 45.7734ZM234.602 94.2891C234.602 107.648 230.734 117.996 223 125.332C215.266 132.668 204.063 136.336 189.391 136.336C179.688 136.336 172 134.953 166.328 132.188L166.328 113.484C173.734 117.797 181.211 119.953 188.758 119.953C196.258 119.953 202.07 117.973 206.195 114.012C210.32 110.051 212.383 104.672 212.383 97.875L212.383 92.1797L212.102 92.1797C207.039 100.242 199.563 104.273 189.672 104.273C180.484 104.273 173.195 101.039 167.805 94.5703C162.414 88.1016 159.719 79.4297 159.719 68.5547C159.719 56.3672 162.719 46.6875 168.719 39.5156C174.719 32.3438 182.617 28.7578 192.414 28.7578C201.18 28.7578 207.742 32.1328 212.102 38.8828L212.383 38.8828L212.383 30.5156L234.602 30.5156L234.602 94.2891ZM212.664 67.9219L212.664 62.2266C212.664 57.6797 211.316 53.8008 208.621 50.5898C205.926 47.3789 202.422 45.7734 198.109 45.7734C193.188 45.7734 189.32 47.6953 186.508 51.5391C183.695 55.3828 182.289 60.7969 182.289 67.7813C182.289 73.7813 183.625 78.5273 186.297 82.0195C188.969 85.5117 192.625 87.2578 197.266 87.2578C201.859 87.2578 205.574 85.4883 208.41 81.9492C211.246 78.4102 212.664 73.7344 212.664 67.9219L212.664 67.9219ZM149.539 72.8438L102.57 72.8438C103.32 83.2969 109.906 88.5234 122.328 88.5234C130.25 88.5234 137.211 86.6484 143.211 82.8984L143.211 98.9297C136.555 102.492 127.906 104.273 117.266 104.273C105.641 104.273 96.6172 101.051 90.1953 94.6055C83.7734 88.1602 80.5625 79.1719 80.5625 67.6406C80.5625 55.6875 84.0313 46.2188 90.9688 39.2344C97.9063 32.25 106.438 28.7578 116.563 28.7578C127.063 28.7578 135.184 31.875 140.926 38.1094C146.668 44.3438 149.539 52.8047 149.539 63.4922L149.539 72.8438ZM128.938 59.2031C128.938 48.8906 124.766 43.7344 116.422 43.7344C112.859 43.7344 109.777 45.2109 107.176 48.1641C104.574 51.1172 102.992 54.7969 102.43 59.2031L128.938 59.2031ZM0.421875 98.6484L0.421875 76.1484C4.5 79.5703 8.92969 82.1367 13.7109 83.8477C18.4922 85.5586 23.3203 86.4141 28.1953 86.4141C31.0547 86.4141 33.5508 86.1563 35.6836 85.6406C37.8164 85.125 39.5977 84.4102 41.0273 83.4961C42.457 82.582 43.5234 81.5039 44.2266 80.2617C44.9297 79.0195 45.2813 77.6719 45.2813 76.2188C45.2813 74.25 44.7188 72.4922 43.5938 70.9453C42.4688 69.3984 40.9336 67.9688 38.9883 66.6563C37.043 65.3438 34.7344 64.0781 32.0625 62.8594C29.3906 61.6406 26.5078 60.3984 23.4141 59.1328C15.5391 55.8516 9.66797 51.8438 5.80078 47.1094C1.93359 42.375 0 36.6563 0 29.9531C0 24.7031 1.05469 20.1914 3.16406 16.418C5.27344 12.6445 8.14453 9.53906 11.7773 7.10156C15.4102 4.66406 19.6172 2.87109 24.3984 1.72266C29.1797 0.574223 34.2422 3.8147e-06 39.5859 0C44.8359 0 49.4883 0.316406 53.543 0.949219C57.5977 1.58203 61.3359 2.55469 64.7578 3.86719L64.7578 24.8906C63.0703 23.7188 61.2305 22.6875 59.2383 21.7969C57.2461 20.9063 55.1953 20.168 53.0859 19.582C50.9766 18.9961 48.8789 18.5625 46.793 18.2813C44.707 18 42.7266 17.8594 40.8516 17.8594C38.2734 17.8594 35.9297 18.1055 33.8203 18.5977C31.7109 19.0898 29.9297 19.7813 28.4766 20.6719C27.0234 21.5625 25.8984 22.6289 25.1016 23.8711C24.3047 25.1133 23.9063 26.5078 23.9063 28.0547C23.9063 29.7422 24.3516 31.2539 25.2422 32.5898C26.1328 33.9258 27.3984 35.1914 29.0391 36.3867C30.6797 37.582 32.6719 38.7539 35.0156 39.9023C37.3594 41.0508 40.0078 42.2344 42.9609 43.4531C46.9922 45.1406 50.6133 46.9336 53.8242 48.832C57.0352 50.7305 59.7891 52.875 62.0859 55.2656C64.3828 57.6563 66.1406 60.3867 67.3594 63.457C68.5781 66.5273 69.1875 70.1016 69.1875 74.1797C69.1875 79.8047 68.1211 84.5273 65.9883 88.3477C63.8555 92.168 60.9609 95.2617 57.3047 97.6289C53.6484 99.9961 49.3945 101.695 44.543 102.727C39.6914 103.758 34.5703 104.273 29.1797 104.273C23.6484 104.273 18.3867 103.805 13.3945 102.867C8.40234 101.93 4.07813 100.523 0.421875 98.6484L0.421875 98.6484Z" id="Segoe-UI" fill="#FC4850"  stroke="none" />
</svg>